<?xml version="1.0" encoding="UTF-8"?>
<svg id="Layer_1" data-name="Layer 1" xmlns="http://www.w3.org/2000/svg" viewBox="0 0 42.5 42.5">
  <defs>
    <style>
      .cls-1 {
        fill: orange;
      }
    </style>
  </defs>
  <path class="cls-1" d="M40.91,21.15c0,6.93-5.62,12.56-12.56,12.56-3.19,0-7.15-1.86-7.08-2.18,0-.03,.04-.03,.32-.23,0,0,.22-.15,.57-.41,.42-.32,.74-.61,.91-.77,.15-.14,.42-.4,.72-.73,.59-.65,.99-1.23,1.19-1.52,.63-.95,1.02-1.82,1.25-2.42,.33-.87,.5-1.6,.58-1.98,.11-.55,.25-1.43,.25-2.52,0-.78-.07-1.41-.13-1.82-.21-1.44-.63-2.55-.92-3.21-.27-.62-.55-1.1-.68-1.34-.1-.17-.32-.52-.62-.95-.44-.61-.83-1.05-1.01-1.24-.28-.3-.51-.52-.64-.64-.13-.12-.35-.32-.65-.56-.2-.16-.35-.28-.57-.43-.25-.17-.28-.17-.29-.2-.06-.31,3.84-2.04,6.8-1.93,4.92,.18,12.56,4.57,12.56,12.56Z"/>
  <path class="cls-1" d="M1.68,20.95c0-7.03,5.7-12.72,12.72-12.72,3.24,0,7.24,1.88,7.17,2.21,0,.03-.04,.03-.32,.23,0,0-.22,.15-.58,.42-.43,.32-.75,.62-.92,.78-.15,.14-.42,.4-.73,.74-.6,.66-1.01,1.24-1.21,1.54-.64,.97-1.04,1.85-1.27,2.46-.34,.89-.51,1.62-.59,2.01-.11,.56-.26,1.45-.26,2.56,0,.79,.07,1.43,.13,1.85,.21,1.46,.64,2.58,.93,3.26,.28,.63,.55,1.12,.69,1.35,.1,.17,.32,.53,.63,.96,.45,.62,.84,1.06,1.03,1.25,.28,.3,.52,.53,.65,.65,.13,.12,.36,.33,.66,.57,.2,.16,.35,.28,.57,.44,.25,.17,.29,.18,.29,.21,.06,.31-3.89,2.07-6.89,1.96-4.98-.18-12.72-4.64-12.72-12.72Z"/>
</svg>